<?xml version="1.0" encoding="UTF-8"?>
<svg id="Layer_1" xmlns="http://www.w3.org/2000/svg" version="1.1" viewBox="0 0 40 40">
  <!-- Generator: Adobe Illustrator 30.2.1, SVG Export Plug-In . SVG Version: 2.1.1 Build 1)  -->
  <path d="M14.91,3.42l-5.35-1.4-1.4,5.35,3.86-1.05,2.9-2.89ZM10.44,7.95l-7.72,2.11,1.17,4.39,6.55-6.49h0ZM36.61,14.94l1.43-5.47-5.35-1.38,1.08,4.06,2.84,2.78ZM3.51,25.15l-1.43,5.38,5.35,1.38-1.05-3.89s-2.87-2.86-2.87-2.87ZM30,2.66l-4.44,1.23,6.58,6.58-2.14-7.81h0ZM29.59,32.08l7.84-2.13-1.23-4.47s-6.61,6.61-6.61,6.61ZM25.12,36.55l5.47,1.43,1.4-5.35-4.07,1.08s-2.81,2.84-2.81,2.84ZM10.12,37.34l4.39-1.17-6.46-6.49,2.08,7.66h0ZM36.32,23.68l3.68-3.68-11.69-11.7-4.56-4.56-3.74-3.74-6.52,6.52L3.77,16.23l-3.77,3.77,6.58,6.58,9.71,9.71,3.71,3.71,6.49-6.49,9.82-9.83h0ZM19.88,23.04c0,.35-.12.67-.38.91l-1.49,1.49c-.26.26-.56.38-.91.38h-6.46v-12.19h6.46c.35,0,.67.12.91.38l1.49,1.49c.26.26.38.56.38.91v6.64ZM23.48,13.63h2.19v10.12h5.99v2.08h-8.19s0-12.19,0-12.19Z"/>
  <path d="M16.87,15.82c-.07-.07-.16-.12-.26-.12h-3.8v8.04h3.8c.12,0,.18-.03.26-.12l.7-.7c.06-.09.12-.17.12-.26v-5.88c0-.1-.04-.2-.12-.26l-.7-.7Z"/>
</svg>