<?xml version="1.0" encoding="UTF-8"?>
<svg xmlns="http://www.w3.org/2000/svg" version="1.1" viewBox="0 0 375 375">
  <!-- Generator: Adobe Illustrator 30.2.1, SVG Export Plug-In . SVG Version: 2.1.1 Build 1)  -->
  <defs>
    <style>
      .st0 {
        fill: #be2736;
      }

      .st0, .st1 {
        fill-rule: evenodd;
      }

      .st1 {
        fill: #231f20;
      }

      .st2 {
        isolation: isolate;
      }
    </style>
  </defs>
  <g id="Shape_2" class="st2">
    <g id="Shape_21" data-name="Shape_2">
      <path class="st1" d="M157.9,172.08c-26.21-33.17-62.44-17.64-62.44-17.64-8.96,14.11-17.55,27.58-17.62,27.46,0,0,0,0,0,0-.17-18.69,0-86.13,0-86.13h-2.96s-.81.97-1.79,2.04c-1.51,1.64-3.63,2.57-5.86,2.57h-25.37s-.08,1.78,0,4.08c4.54,2.14,6.84,6.06,7.86,8.42.48,1.09.7,2.28.69,3.47-.08,14.98-.7,135.61-.54,156.04-.27,4.24-8.06,6.97-8.06,6.97l.14,3.65s61.42,10.55,91.42-2.75c21.38-12.64,34.35-22.7,39.38-58.41,2.36-24.96-8.5-41.71-14.86-49.76ZM127.13,256.89c-17.14,13.13-49.3,5.98-49.3,5.98v-78.6s13.42-9.02,26-9.02c24.27,0,37.57,19.3,38.15,38.95.43,14.57.29,31.09-14.85,42.69Z"/>
    </g>
  </g>
  <g id="Shape_3" class="st2">
    <g id="Shape_31" data-name="Shape_3">
      <path class="st0" d="M312.68,250.31c-14.79-17.2-46.6-58.64-46.6-58.64,0,0,21.91-4.16,35.66-28.26,11.13-19.5,2.58-42.95-7.17-51.27-19.05-16.23-38.7-16.24-109.2-16.23-.08,2.24,0,1,0,4.17,1.12.01,2.41.47,3.72,1.16,4.98,2.62,7.96,7.93,7.95,13.56-.03,15.98-.08,59.34,0,144.97,0,6.07-3.13,11.71-8.28,14.91l-3.39,2.1v4.09s27,.5,54.05,0c0,0,0-4.3,0-4.3l-3.22-1.96c-5.19-3.15-8.38-8.77-8.42-14.85-.34-52.16-.91-140.89-.91-140.89.54.2,48.04-10.91,49.43,23.98,1.51,37.85-46.29,40.95-46.29,40.95,0,0,22.14,38.42,62.75,85.48,4.97,5.76,11.96,9.44,19.54,10.13,15.07,1.38,36.58.85,36.58.85-26.68-18.56-36.21-29.96-36.21-29.96Z"/>
    </g>
  </g>
</svg>