<svg width="22" height="24" viewBox="0 0 22 24" fill="none" xmlns="http://www.w3.org/2000/svg">
<path d="M15.032 13.112V10.744C15.032 6.84 14.84 4.376 14.456 3.352C14.0293 2.17867 13.4213 1.45333 12.632 1.176C12.184 1.00533 11.64 0.919998 11 0.919998C10.36 0.919998 9.80533 1.00533 9.336 1.176C8.888 1.34667 8.51467 1.64533 8.216 2.072C7.91733 2.49867 7.672 2.94667 7.48 3.416C7.30933 3.88533 7.17067 4.54667 7.064 5.4C6.936 6.63733 6.872 8.46133 6.872 10.872V13.176C6.872 15.7787 6.968 17.6347 7.16 18.744C7.37333 19.832 7.62933 20.6107 7.928 21.08C8.58933 22.1253 9.61333 22.648 11 22.648C12.6853 22.648 13.7733 21.944 14.264 20.536C14.776 19.1067 15.032 16.632 15.032 13.112ZM10.936 23.32C7.37333 23.32 4.70667 22.36 2.936 20.44C1.18667 18.4987 0.312 15.704 0.312 12.056C0.312 8.38667 1.25067 5.50667 3.128 3.416C5.02667 1.304 7.704 0.247999 11.16 0.247999C14.616 0.247999 17.2187 1.25067 18.968 3.256C20.7387 5.24 21.624 8.06667 21.624 11.736C21.624 15.4053 20.728 18.2533 18.936 20.28C17.1653 22.3067 14.4987 23.32 10.936 23.32Z" fill="#FF5733"/>
</svg>
