<svg width="32" height="32" viewBox="0 0 32 32" fill="none" xmlns="http://www.w3.org/2000/svg">
<rect width="32" height="32" rx="4" fill="#336699"/>
<path d="M13.2753 16.2288C12.2199 15.8273 11.2275 15.3282 10.413 14.5481C10.1893 14.3302 10.0344 14.0147 9.91395 13.7221C9.72466 13.2345 10 12.8445 10.3384 12.5634C11.4168 11.6514 12.7476 11.2843 14.0956 10.9975C14.8184 10.8426 15.5468 10.7106 16.2753 10.6017C16.7514 10.5328 17.2333 10.5328 17.7151 10.4755C18.6902 10.355 19.6711 10.2345 20.5545 9.76992C21.0535 9.50606 21.2887 9.23073 21.1855 8.72595C21.1281 8.4334 20.9388 8.11792 20.7151 7.92289C20.2275 7.49268 19.6826 7.11983 19.1491 6.73551C18.9369 6.58063 18.6902 6.46591 18.4837 6.29382C18.8967 6.47738 19.3212 6.63799 19.7228 6.85596C20.2677 7.14851 20.7954 7.45826 21.3117 7.79096C21.7591 8.07776 22.1606 8.44487 22.3384 8.95539C22.5105 9.4487 22.4073 9.91333 22.0344 10.3091C21.5641 10.8082 20.9962 11.1638 20.3652 11.376C19.3958 11.703 18.4149 12.0128 17.4168 12.2365C16.6424 12.4085 15.8336 12.4372 15.0421 12.5462C13.8948 12.7011 12.7304 12.7929 11.6749 13.3435C11.0096 13.6934 10.9178 14.2843 11.4168 14.8407C11.9159 15.3913 12.5124 15.8043 13.1549 16.1542C13.2008 16.1772 13.2409 16.2059 13.2753 16.2288Z" fill="white"/>
<path d="M15.9426 19.3091C15.9426 18.6896 15.9426 18.0988 15.9426 17.485C16.4187 17.4449 16.8834 17.4105 17.3537 17.3588C18.3862 17.2384 19.413 17.1064 20.3767 16.6648C21.4264 16.1829 21.3289 15.4372 20.6807 14.7374C20.13 14.1409 19.4359 13.7451 18.7476 13.3435C18.6788 13.3034 18.6042 13.2632 18.5526 13.1772C18.6845 13.2403 18.8222 13.2976 18.9541 13.3607C19.8203 13.7336 20.6692 14.1409 21.4264 14.7259C21.8164 15.03 22.2008 15.3569 22.3614 15.8388C22.5507 16.4009 22.3958 16.9516 21.7935 17.4219C20.7266 18.2479 19.4761 18.6437 18.1855 18.9191C17.5086 19.0625 16.826 19.1829 16.1491 19.3149C16.0803 19.3206 16.0229 19.3091 15.9426 19.3091Z" fill="white"/>
<path d="M13.5449 9.89611C12.8623 9.53474 12.1625 9.20204 11.4971 8.81198C11.0956 8.5768 10.717 8.28426 10.3671 7.97451C9.50095 7.20013 9.62141 6.3225 10.5851 5.66284C11.3767 5.12365 12.26 4.78521 13.1836 4.57871C14.1415 4.36074 15.1052 4.18866 16.0688 4.0051C16.1434 3.99363 16.218 4.0051 16.2925 4.0051C16.2925 4.61313 16.2925 5.20395 16.2925 5.83493C15.805 5.87508 15.3461 5.9095 14.8929 5.95539C13.8547 6.05864 12.8222 6.19057 11.8642 6.62078C11.4799 6.79286 11.0382 7.02231 11.1243 7.5615C11.1644 7.81963 11.3193 8.08923 11.4857 8.29573C12.0249 8.9267 12.7476 9.32823 13.4589 9.72976C13.5048 9.75844 13.5564 9.78713 13.6023 9.81007C13.5851 9.83875 13.5679 9.86743 13.5449 9.89611Z" fill="white"/>
<path d="M12.4551 22.4582C12.3862 22.6533 12.283 22.8254 12.2658 23.0089C12.2084 23.5252 12.174 24.0414 12.1453 24.5634C12.0765 25.6303 12.0191 26.6973 11.956 27.7756C11.6807 27.8904 11.5602 27.6609 11.4283 27.5118C10.9579 26.9841 10.499 26.4449 10.0459 25.9057C9.43786 25.1772 8.83556 24.4372 8.23327 23.703C8.18164 23.6399 8.13002 23.5711 8.04971 23.5194C8.14723 24.9477 7.96367 26.3818 8.31358 27.7699C7.99809 27.7699 7.61377 27.7699 7.21797 27.7699C7.54493 27.2823 7.51625 26.7087 7.55067 26.1581C7.60229 25.2575 7.61377 24.3569 7.67686 23.4563C7.71128 23.0032 7.48184 22.7508 7.1434 22.5443C7.10899 22.5213 7.07457 22.4984 7 22.4468C7.44168 22.4468 7.83174 22.4468 8.21033 22.4468C8.76673 23.1581 9.30593 23.8751 9.87381 24.5749C10.4417 25.2747 11.0382 25.9516 11.6864 26.6169C11.6864 26.1064 11.6979 25.5959 11.6807 25.0854C11.6577 24.3856 11.6176 23.6858 11.5602 22.986C11.543 22.8082 11.434 22.6303 11.3709 22.4582C11.7036 22.4582 12.0937 22.4582 12.4551 22.4582Z" fill="white"/>
<path d="M18.7763 27.747C19 27.5347 19.0287 27.2537 19.0287 26.9554C19.0402 25.8885 19.0688 24.8215 19.0803 23.7604C19.0803 23.485 19.0688 23.2097 19.0172 22.9401C18.9828 22.7623 18.8623 22.6017 18.8165 22.4984C19.3155 22.4525 19.8719 22.378 20.4283 22.3665C20.8413 22.3607 21.2658 22.378 21.6558 22.4869C22.1434 22.6189 22.3958 23.2097 22.2581 23.6743C22.1778 23.9324 22.0058 24.1676 21.8337 24.3856C21.7075 24.5462 21.5297 24.6667 21.3289 24.8445C21.7935 24.9133 22.1147 25.0797 22.4073 25.3493C22.8547 25.768 22.8031 26.6284 22.4417 27.0472C21.8279 27.7699 21.0363 27.9535 20.1243 27.8158C19.6826 27.747 19.2295 27.7699 18.7763 27.747ZM19.7744 25.1026C19.7744 25.7049 19.7687 26.2613 19.7801 26.8235C19.7859 27.1045 19.8891 27.3168 20.2161 27.3627C20.4283 27.3913 20.6291 27.4716 20.8413 27.5118C21.2027 27.5749 21.7304 27.3856 21.8394 27.116C22.0861 26.5022 22.0402 25.6877 21.2887 25.2804C20.8069 25.0223 20.3079 25.1313 19.7744 25.1026ZM19.8088 24.8158C19.9637 24.8158 20.1243 24.8445 20.2677 24.8101C20.6176 24.724 21.0134 24.8502 21.3002 24.4774C21.6616 24.0128 21.5469 23.1064 21.0077 22.8942C20.652 22.7565 20.2448 22.7565 19.8145 22.6877C19.8088 23.4506 19.8088 24.116 19.8088 24.8158Z" fill="white"/>
<path d="M17.7667 22.4927C17.6864 22.9229 17.6118 23.3129 17.5373 23.7202C17.5143 23.7087 17.434 23.6973 17.4283 23.6686C17.3078 23.1351 16.8834 22.963 16.4302 22.8999C16.0401 22.8426 15.6329 22.8713 15.2313 22.9057C14.8298 22.9401 14.566 23.1867 14.4283 23.5653C14.1185 24.4143 14.0612 25.269 14.4455 26.1122C14.7151 26.703 15.2256 27.0242 15.8336 27.0931C16.499 27.1734 17.1874 27.1734 17.7323 26.6456C17.7897 26.7202 17.8356 26.7776 17.8585 26.8062C17.6004 27.0873 17.3652 27.3569 17.1128 27.6093C17.021 27.7011 16.9063 27.7986 16.7858 27.8158C15.7878 27.9764 14.4799 27.724 13.8547 26.7317C13.5851 26.3015 13.4646 25.8311 13.4417 25.3206C13.4187 24.6953 13.5105 24.1103 13.8547 23.5883C14.2677 22.9516 14.87 22.573 15.6157 22.4181C16.3499 22.2632 17.0612 22.4124 17.7667 22.4927Z" fill="white"/>
<path d="M24.9714 22.441C24.8968 22.659 24.7763 22.8712 24.7706 23.0835C24.7304 24.1619 24.7132 25.2345 24.7075 26.3129C24.7075 26.6514 24.7649 26.9898 24.8222 27.3225C24.8509 27.4831 24.9427 27.6265 25 27.7756C24.61 27.7756 24.1568 27.7756 23.6922 27.7756C24.002 27.4831 24.002 27.093 24.0077 26.7145C24.0192 25.6934 24.0134 24.6667 24.0077 23.6456C24.0077 23.3932 23.9962 23.1294 23.9389 22.8827C23.9044 22.7278 23.784 22.5844 23.7037 22.4468C24.1339 22.441 24.5813 22.441 24.9714 22.441Z" fill="white"/>
</svg>
