<svg width="53" height="55" viewBox="0 0 53 55" fill="none" xmlns="http://www.w3.org/2000/svg">
<g clip-path="url(#clip0_47_120)">
<path d="M48.0172 0H4.98276C2.23086 0 0 2.24948 0 5.02436V48.4181C0 51.193 2.23086 53.4424 4.98276 53.4424H48.0172C50.7691 53.4424 53 51.193 53 48.4181V5.02436C53 2.24948 50.7691 0 48.0172 0Z" fill="#292F88"/>
<path d="M48.0172 0H4.98276C2.23086 0 0 2.24948 0 5.02436V48.4181C0 51.193 2.23086 53.4424 4.98276 53.4424H48.0172C50.7691 53.4424 53 51.193 53 48.4181V5.02436C53 2.24948 50.7691 0 48.0172 0Z" fill="#60656E"/>
<path d="M32.0959 35.0219C35.0523 31.9068 22.6619 19.9991 25.6183 16.8672L27.0965 15.3097C24.1401 18.4248 36.5305 30.3325 33.5741 33.4644L32.0959 35.0219Z" fill="#BAC2CA"/>
<path d="M23.2266 44.384C26.183 41.2689 13.7925 29.3612 16.749 26.2293L18.2272 24.6718C15.2707 27.7869 27.6612 39.6946 24.7048 42.8264L23.2266 44.384Z" fill="#BAC2CA"/>
<path d="M20.2867 47.5158C23.2432 44.4007 10.8527 32.493 13.8091 29.3611L15.2874 27.8036C12.3309 30.9187 24.7214 42.8264 21.765 45.9583L20.2867 47.5158Z" fill="#BAC2CA"/>
<path d="M35.0357 31.9068C37.9922 28.7917 25.6017 16.884 28.5581 13.7521L30.0363 12.1946C27.0799 15.3097 39.4704 27.2174 36.5139 30.3493L35.0357 31.9068Z" fill="#BAC2CA"/>
<path d="M6.70023 47.3819L4.50781 45.1711L36.7795 12.63L37.5103 4.49056L44.8516 3L40.4502 7.43819L41.9118 11.8764L6.70023 47.3819Z" fill="#94554E"/>
<path d="M6.70023 47.3819L8.90925 49.6093L41.181 17.0682L49.253 16.3146L50.7146 8.92877L46.3132 13.367L41.9118 11.8764L6.70023 47.3819Z" fill="#94554E"/>
<path d="M48.3231 17.8553C45.3667 20.9705 32.9928 9.06272 30.0364 12.1946L28.5581 13.7521C31.5146 10.637 43.8884 22.5448 46.8449 19.4129L48.3231 17.8553Z" fill="#A6ACB3" stroke="#A4ACD3" stroke-width="0.03" stroke-miterlimit="10"/>
<path d="M45.3833 20.9872C42.4268 24.1023 30.053 12.1946 27.0965 15.3264L25.6183 16.884C28.5747 13.7689 40.9486 25.6766 43.905 22.5447L45.3833 20.9872Z" fill="#A6ACB3" stroke="#A4ACD3" stroke-width="0.03" stroke-miterlimit="10"/>
<path d="M36.5139 30.3492C33.5575 33.4643 21.1836 21.5566 18.2272 24.6885L16.749 26.246C19.7054 23.1309 32.0793 35.0386 35.0357 31.9068L36.5139 30.3492Z" fill="#A6ACB3" stroke="#A4ACD3" stroke-width="0.03" stroke-miterlimit="10"/>
<path d="M33.5741 33.4644C30.6177 36.5795 18.2438 24.6717 15.2874 27.8036L13.8092 29.3611C16.7656 26.246 29.1395 38.1538 32.0959 35.0219L33.5741 33.4644Z" fill="#A6ACB3" stroke="#A4ACD3" stroke-width="0.03" stroke-miterlimit="10"/>
<path d="M24.4723 43.0944C21.5158 46.2095 9.14197 34.3017 6.18553 37.4336L4.70731 38.9911C7.66375 35.876 20.0376 47.7838 22.9941 44.6519L24.4723 43.0944Z" fill="#A6ACB3" stroke="#A4ACD3" stroke-width="0.03" stroke-miterlimit="10"/>
<path d="M21.765 45.9583C18.8085 49.0734 6.43466 37.1656 3.47822 40.2975L2 41.855C4.95644 38.7399 17.3303 50.6477 20.2867 47.5158L21.765 45.9583Z" fill="#A6ACB3" stroke="#A4ACD3" stroke-width="0.03" stroke-miterlimit="10"/>
<path d="M30.5322 19.2251H25.7202L24.8853 14.8306C24.3286 14.479 23.5156 14.1714 22.4463 13.9077C21.377 13.644 20.2417 13.5122 19.0405 13.5122C17.2827 13.5122 15.9204 13.8857 14.9536 14.6328C14.0015 15.3652 13.5254 16.3174 13.5254 17.4893C13.5254 18.5732 14.0234 19.4668 15.0195 20.1699C16.0303 20.8584 17.7661 21.5908 20.2271 22.3672C23.7573 23.3486 26.4307 24.645 28.2471 26.2563C30.0781 27.8677 30.9937 29.9844 30.9937 32.6064C30.9937 35.3457 29.9097 37.5063 27.7417 39.0884C25.5737 40.6704 22.7173 41.4614 19.1724 41.4614C16.6382 41.4614 14.3457 41.0586 12.2949 40.2529C10.2588 39.4473 8.55957 38.334 7.19727 36.9131V30.2334H12.1631L12.8442 34.7817C13.4888 35.3091 14.3604 35.7485 15.459 36.1001C16.5723 36.437 17.8101 36.6055 19.1724 36.6055C20.9302 36.6055 22.2632 36.2466 23.1714 35.5288C24.0942 34.811 24.5557 33.8516 24.5557 32.6504C24.5557 31.4199 24.1162 30.4312 23.2373 29.6841C22.373 28.937 20.8496 28.2339 18.667 27.5747C14.873 26.4761 12.002 25.1724 10.0537 23.6636C8.10547 22.1548 7.13135 20.0894 7.13135 17.4673C7.13135 14.8745 8.22998 12.7578 10.4272 11.1172C12.6245 9.46191 15.3857 8.6123 18.7109 8.56836C21.1719 8.56836 23.4131 8.94189 25.4346 9.68896C27.4561 10.436 29.1553 11.4321 30.5322 12.6772V19.2251Z" fill="white"/>
<path d="M41.8408 31.5342L41.7881 31.5254L38.3604 41H36.6377L33.2275 31.5605L33.1748 31.5693L33.4209 37.1855V39.1982L34.792 39.4619V41H29.4922V39.4619L30.8545 39.1982V30.0137L29.4922 29.75V28.2031H30.8545H34.2031L37.4639 37.6338H37.5166L40.8037 28.2031H45.5322V29.75L44.1611 30.0137V39.1982L45.5322 39.4619V41H40.2324V39.4619L41.5947 39.1982V37.1855L41.8408 31.5342Z" fill="white"/>
</g>
<defs>
<clipPath id="clip0_47_120">
<rect width="53" height="55" fill="white"/>
</clipPath>
</defs>
</svg>
