<svg width="48" height="49" viewBox="0 0 48 49" fill="none" xmlns="http://www.w3.org/2000/svg">
<path d="M9.41797 45.5352V46.6094C9.05599 46.8047 8.7474 46.9375 8.49219 47.0078C8.23958 47.0807 7.96615 47.1172 7.67188 47.1172C7.26302 47.1172 6.88411 47.056 6.53516 46.9336C6.26172 46.8398 6.04557 46.7214 5.88672 46.5781C5.73047 46.4349 5.58594 46.224 5.45312 45.9453C5.32031 45.6641 5.25391 45.3503 5.25391 45.0039V44.4258C5.25391 43.8919 5.41667 43.4154 5.74219 42.9961C6.17969 42.4284 6.77474 42.1445 7.52734 42.1445C7.74609 42.1445 7.95312 42.1667 8.14844 42.2109C8.34635 42.2552 8.53385 42.3216 8.71094 42.4102C8.81771 42.3138 8.92188 42.2656 9.02344 42.2656C9.14062 42.2656 9.23568 42.306 9.30859 42.3867C9.38151 42.4674 9.41797 42.6042 9.41797 42.7969V43.3164C9.41797 43.5091 9.38021 43.6471 9.30469 43.7305C9.23177 43.8112 9.13672 43.8516 9.01953 43.8516C8.92578 43.8516 8.84505 43.8229 8.77734 43.7656C8.72526 43.7266 8.68099 43.6406 8.64453 43.5078C8.61068 43.3724 8.57161 43.2812 8.52734 43.2344C8.45703 43.1589 8.33203 43.0924 8.15234 43.0352C7.97526 42.9753 7.77604 42.9453 7.55469 42.9453C7.23698 42.9453 6.96094 43.0104 6.72656 43.1406C6.5599 43.237 6.40625 43.4049 6.26562 43.6445C6.125 43.8841 6.05469 44.1445 6.05469 44.4258V45.0039C6.05469 45.4336 6.17839 45.7604 6.42578 45.9844C6.67578 46.2057 7.07161 46.3164 7.61328 46.3164C7.98047 46.3164 8.3151 46.2474 8.61719 46.1094V45.5352H7.80078C7.60807 45.5352 7.47005 45.4987 7.38672 45.4258C7.30599 45.3503 7.26562 45.2526 7.26562 45.1328C7.26562 45.013 7.30599 44.9167 7.38672 44.8438C7.47005 44.7682 7.60807 44.7305 7.80078 44.7305L9.22266 44.7344C9.41536 44.7344 9.55208 44.7708 9.63281 44.8438C9.71615 44.9167 9.75781 45.013 9.75781 45.1328C9.75781 45.2266 9.72917 45.3086 9.67188 45.3789C9.61719 45.4492 9.53255 45.5013 9.41797 45.5352ZM14.2148 45.6328H10.9297C11.013 45.8411 11.1602 46.0091 11.3711 46.1367C11.5846 46.2643 11.8724 46.3281 12.2344 46.3281C12.5312 46.3281 12.9258 46.2643 13.418 46.1367C13.6211 46.0846 13.7617 46.0586 13.8398 46.0586C13.9466 46.0586 14.0365 46.0964 14.1094 46.1719C14.1823 46.2474 14.2188 46.3424 14.2188 46.457C14.2188 46.5612 14.1797 46.6497 14.1016 46.7227C13.9974 46.819 13.7435 46.9115 13.3398 47C12.9362 47.0859 12.5482 47.1289 12.1758 47.1289C11.5352 47.1289 11.0221 46.9479 10.6367 46.5859C10.2539 46.224 10.0625 45.7786 10.0625 45.25C10.0625 44.6875 10.2695 44.2305 10.6836 43.8789C11.1003 43.5247 11.5794 43.3477 12.1211 43.3477C12.4466 43.3477 12.7448 43.4049 13.0156 43.5195C13.2891 43.6341 13.4922 43.7578 13.625 43.8906C13.8125 44.0833 13.9674 44.3216 14.0898 44.6055C14.1732 44.8034 14.2148 45.0326 14.2148 45.293V45.6328ZM13.3281 44.832C13.2057 44.6029 13.0456 44.4323 12.8477 44.3203C12.6497 44.2057 12.4141 44.1484 12.1406 44.1484C11.8698 44.1484 11.6354 44.2057 11.4375 44.3203C11.2396 44.4323 11.0781 44.6029 10.9531 44.832H13.3281ZM16.1992 43.4531V43.7227C16.3451 43.5977 16.5052 43.5039 16.6797 43.4414C16.8568 43.3789 17.0482 43.3477 17.2539 43.3477C17.7279 43.3477 18.1029 43.4948 18.3789 43.7891C18.5977 44.0234 18.707 44.3307 18.707 44.7109V46.1992C18.8763 46.1992 19.0013 46.237 19.082 46.3125C19.1628 46.3854 19.2031 46.4818 19.2031 46.6016C19.2031 46.7188 19.1615 46.8151 19.0781 46.8906C18.9974 46.9635 18.8607 47 18.668 47H17.9453C17.7526 47 17.6146 46.9635 17.5312 46.8906C17.4505 46.8151 17.4102 46.7174 17.4102 46.5977C17.4102 46.4805 17.4505 46.3854 17.5312 46.3125C17.612 46.237 17.737 46.1992 17.9062 46.1992V44.6875C17.9062 44.513 17.8594 44.3854 17.7656 44.3047C17.6432 44.2005 17.4596 44.1484 17.2148 44.1484C17.0299 44.1484 16.8672 44.1849 16.7266 44.2578C16.5885 44.3281 16.4128 44.4792 16.1992 44.7109V46.1992C16.4049 46.1992 16.5378 46.2188 16.5977 46.2578C16.7253 46.3359 16.7891 46.4505 16.7891 46.6016C16.7891 46.7188 16.7474 46.8151 16.6641 46.8906C16.5833 46.9635 16.4466 47 16.2539 47H15.3438C15.151 47 15.013 46.9635 14.9297 46.8906C14.849 46.8151 14.8086 46.7174 14.8086 46.5977C14.8086 46.4518 14.8711 46.3385 14.9961 46.2578C15.0586 46.2188 15.1927 46.1992 15.3984 46.1992V44.2539C15.2292 44.2539 15.1042 44.2161 15.0234 44.1406C14.9427 44.0651 14.9023 43.9688 14.9023 43.8516C14.9023 43.7344 14.9427 43.6393 15.0234 43.5664C15.1068 43.4909 15.2448 43.4531 15.4375 43.4531H16.1992ZM23.8945 45.293C23.8945 45.6003 23.8086 45.8984 23.6367 46.1875C23.4674 46.474 23.2135 46.7031 22.875 46.875C22.5391 47.0443 22.1875 47.1289 21.8203 47.1289C21.4557 47.1289 21.1068 47.0456 20.7734 46.8789C20.4401 46.7096 20.1862 46.4805 20.0117 46.1914C19.8372 45.9023 19.75 45.6003 19.75 45.2852C19.75 44.9648 19.8385 44.651 20.0156 44.3438C20.1927 44.0339 20.4466 43.7904 20.7773 43.6133C21.1107 43.4362 21.4583 43.3477 21.8203 43.3477C22.1849 43.3477 22.5352 43.4388 22.8711 43.6211C23.2096 43.8008 23.4648 44.0443 23.6367 44.3516C23.8086 44.6562 23.8945 44.9701 23.8945 45.293ZM23.0938 45.2969C23.0938 45.0391 23.0013 44.8021 22.8164 44.5859C22.5638 44.2943 22.2318 44.1484 21.8203 44.1484C21.4583 44.1484 21.1562 44.2643 20.9141 44.4961C20.6719 44.7279 20.5508 44.9961 20.5508 45.3008C20.5508 45.5508 20.6732 45.7852 20.918 46.0039C21.1628 46.2201 21.4635 46.3281 21.8203 46.3281C22.1797 46.3281 22.4818 46.2201 22.7266 46.0039C22.9714 45.7852 23.0938 45.5495 23.0938 45.2969ZM26.1562 45.375V46.1992H26.9648C27.1576 46.1992 27.2943 46.237 27.375 46.3125C27.4583 46.3854 27.5 46.4818 27.5 46.6016C27.5 46.7188 27.4583 46.8151 27.375 46.8906C27.2943 46.9635 27.1576 47 26.9648 47H25.2305C25.0378 47 24.8997 46.9635 24.8164 46.8906C24.7357 46.8151 24.6953 46.7174 24.6953 46.5977C24.6953 46.4805 24.737 46.3854 24.8203 46.3125C24.9036 46.237 25.0404 46.1992 25.2305 46.1992H25.3555V43.0664H25.2305C25.0378 43.0664 24.8997 43.0299 24.8164 42.957C24.7357 42.8815 24.6953 42.7839 24.6953 42.6641C24.6953 42.5443 24.7357 42.4479 24.8164 42.375C24.8997 42.2995 25.0378 42.2617 25.2305 42.2617L27.0742 42.2656C27.6159 42.2656 28.0443 42.4141 28.3594 42.7109C28.6771 43.0052 28.8359 43.3646 28.8359 43.7891C28.8359 44.0234 28.7826 44.2448 28.6758 44.4531C28.5951 44.6094 28.4596 44.7643 28.2695 44.918C28.082 45.069 27.8893 45.1836 27.6914 45.2617C27.4961 45.3372 27.237 45.375 26.9141 45.375H26.1562ZM26.1562 44.5742H26.8984C27.2474 44.5742 27.5234 44.4961 27.7266 44.3398C27.9323 44.181 28.0352 43.9909 28.0352 43.7695C28.0352 43.582 27.9518 43.418 27.7852 43.2773C27.6211 43.1367 27.3854 43.0664 27.0781 43.0664H26.1562V44.5742ZM31.7109 41.9336V42.7812H30.7578V41.9336H31.7109ZM31.8203 43.4531V46.1992H32.7812C32.974 46.1992 33.1107 46.237 33.1914 46.3125C33.2747 46.3854 33.3164 46.4818 33.3164 46.6016C33.3164 46.7188 33.2747 46.8151 33.1914 46.8906C33.1107 46.9635 32.974 47 32.7812 47H30.0586C29.8659 47 29.7279 46.9635 29.6445 46.8906C29.5638 46.8151 29.5234 46.7174 29.5234 46.5977C29.5234 46.4805 29.5638 46.3854 29.6445 46.3125C29.7279 46.237 29.8659 46.1992 30.0586 46.1992H31.0195V44.2539H30.375C30.1849 44.2539 30.0482 44.2174 29.9648 44.1445C29.8815 44.069 29.8398 43.9714 29.8398 43.8516C29.8398 43.7344 29.8802 43.6393 29.9609 43.5664C30.0443 43.4909 30.1823 43.4531 30.375 43.4531H31.8203ZM35.2344 46.5586V47.8711H35.7148C35.9076 47.8711 36.0443 47.9076 36.125 47.9805C36.2083 48.056 36.25 48.1536 36.25 48.2734C36.25 48.3906 36.2083 48.4857 36.125 48.5586C36.0443 48.6341 35.9076 48.6719 35.7148 48.6719H34.2969C34.1042 48.6719 33.9661 48.6341 33.8828 48.5586C33.8021 48.4857 33.7617 48.3906 33.7617 48.2734C33.7617 48.1536 33.8034 48.056 33.8867 47.9805C33.9701 47.9076 34.1068 47.8711 34.2969 47.8711H34.4336V44.2539H34.2969C34.1042 44.2539 33.9661 44.2174 33.8828 44.1445C33.8021 44.069 33.7617 43.9714 33.7617 43.8516C33.7617 43.7344 33.8021 43.6393 33.8828 43.5664C33.9661 43.4909 34.1042 43.4531 34.2969 43.4531H35.2344V43.7266C35.4219 43.599 35.6159 43.5039 35.8164 43.4414C36.0169 43.3789 36.2227 43.3477 36.4336 43.3477C36.9805 43.3477 37.4466 43.5339 37.832 43.9062C38.2174 44.276 38.4102 44.7005 38.4102 45.1797C38.4102 45.7083 38.1823 46.1445 37.7266 46.4883C37.3464 46.7747 36.918 46.918 36.4414 46.918C36.2357 46.918 36.0326 46.888 35.832 46.8281C35.6315 46.7682 35.4323 46.6784 35.2344 46.5586ZM37.6094 45.1836C37.6094 45.0716 37.5651 44.9297 37.4766 44.7578C37.388 44.5833 37.2513 44.4388 37.0664 44.3242C36.8841 44.207 36.6693 44.1484 36.4219 44.1484C36.0234 44.1484 35.707 44.2982 35.4727 44.5977C35.3138 44.8034 35.2344 45.0013 35.2344 45.1914C35.2344 45.4049 35.3477 45.6133 35.5742 45.8164C35.8034 46.0169 36.0859 46.1172 36.4219 46.1172C36.7604 46.1172 37.043 46.0169 37.2695 45.8164C37.4961 45.6159 37.6094 45.4049 37.6094 45.1836ZM43.043 45.6328H39.7578C39.8411 45.8411 39.9883 46.0091 40.1992 46.1367C40.4128 46.2643 40.7005 46.3281 41.0625 46.3281C41.3594 46.3281 41.7539 46.2643 42.2461 46.1367C42.4492 46.0846 42.5898 46.0586 42.668 46.0586C42.7747 46.0586 42.8646 46.0964 42.9375 46.1719C43.0104 46.2474 43.0469 46.3424 43.0469 46.457C43.0469 46.5612 43.0078 46.6497 42.9297 46.7227C42.8255 46.819 42.5716 46.9115 42.168 47C41.7643 47.0859 41.3763 47.1289 41.0039 47.1289C40.3633 47.1289 39.8503 46.9479 39.4648 46.5859C39.082 46.224 38.8906 45.7786 38.8906 45.25C38.8906 44.6875 39.0977 44.2305 39.5117 43.8789C39.9284 43.5247 40.4076 43.3477 40.9492 43.3477C41.2747 43.3477 41.5729 43.4049 41.8438 43.5195C42.1172 43.6341 42.3203 43.7578 42.4531 43.8906C42.6406 44.0833 42.7956 44.3216 42.918 44.6055C43.0013 44.8034 43.043 45.0326 43.043 45.293V45.6328ZM42.1562 44.832C42.0339 44.6029 41.8737 44.4323 41.6758 44.3203C41.4779 44.2057 41.2422 44.1484 40.9688 44.1484C40.6979 44.1484 40.4635 44.2057 40.2656 44.3203C40.0677 44.4323 39.9062 44.6029 39.7812 44.832H42.1562Z" fill="#30518E"/>
<path d="M6.43995 27.5576H0V36.8297H6.43995V27.5576Z" fill="#30518E"/>
<path d="M12.3455 27.5576H8.78296V36.8297H12.3455V27.5576Z" fill="#30518E"/>
<path d="M37.0588 27.5576H14.6897V36.8297H37.0588V27.5576Z" fill="#30518E"/>
<path d="M48 27.5576H39.4031V36.8297H48V27.5576Z" fill="#30518E"/>
<path d="M8.78415 27.5576H6.43994V36.8297H8.78415V27.5576Z" fill="#FEC619"/>
<path d="M14.6899 27.5576H12.3457V36.8297H14.6899V27.5576Z" fill="#FEC619"/>
<path d="M39.403 27.5576H37.0588V36.8297H39.403V27.5576Z" fill="#FEC619"/>
<path d="M18.4959 22.596H0V13.3712H25.2465L18.4959 22.596Z" fill="#30518E"/>
<path d="M30.0879 13.3712H47.9999V22.596H23.551L30.0879 13.3712Z" fill="#30518E"/>
<path d="M16.0878 0H0V8.40961H16.0878V0Z" fill="#30518E"/>
<path d="M47.9999 0H29.709V8.40961H47.9999V0Z" fill="#30518E"/>
<path d="M29.709 0H16.0889V8.40961H29.709V0Z" fill="#F3B6B5"/>
</svg>
