<svg width="32" height="32" viewBox="0 0 32 32" fill="none" xmlns="http://www.w3.org/2000/svg">
<rect width="32" height="32" rx="4" fill="#A6CE39"/>
<path d="M12.3595 25.9957C12.3595 20.3568 12.3595 14.7494 12.3595 9.11841C12.4305 9.11841 12.4975 9.11841 12.5606 9.11841C14.8674 9.11841 17.1743 9.10264 19.4811 9.13024C20.0765 9.13813 20.6759 9.25248 21.2674 9.36289C22.0166 9.50091 22.7343 9.75722 23.4165 10.1042C24.0711 10.4355 24.6665 10.8535 25.2146 11.3464C26.5278 12.5412 27.2928 14.0396 27.6871 15.7431C27.8764 16.5673 27.9119 17.4151 27.8409 18.2511C27.7029 19.8402 27.1508 21.2835 26.1808 22.5611C25.1949 23.8624 23.9331 24.7891 22.411 25.3687C21.7445 25.6211 21.0663 25.8104 20.3565 25.8735C19.7216 25.9326 19.0828 25.9839 18.448 25.9918C16.5039 26.0076 14.5559 25.9957 12.6119 25.9957C12.5291 25.9957 12.4502 25.9957 12.3595 25.9957ZM14.7649 23.8269C14.8595 23.8269 14.9305 23.8269 15.0015 23.8269C16.2752 23.8269 17.5528 23.8466 18.8265 23.819C19.418 23.8072 20.0213 23.7402 20.601 23.6219C21.9693 23.3379 23.1247 22.6755 24.0119 21.5753C24.8479 20.5382 25.2817 19.3394 25.396 18.0263C25.4552 17.352 25.4039 16.6777 25.2541 16.0074C24.9583 14.6548 24.3116 13.527 23.2193 12.6713C22.0442 11.7486 20.672 11.3582 19.2169 11.303C17.8052 11.2478 16.3935 11.2912 14.9778 11.2912C14.9069 11.2912 14.8398 11.2912 14.7689 11.2912C14.7649 15.4789 14.7649 19.6391 14.7649 23.8269Z" fill="white"/>
<path d="M6.3656 25.9445C6.3656 20.3371 6.3656 14.7416 6.3656 9.13028C7.1582 9.13028 7.94686 9.13028 8.7513 9.13028C8.7513 14.7298 8.7513 20.3292 8.7513 25.9445C7.95869 25.9445 7.17398 25.9445 6.3656 25.9445Z" fill="white"/>
<path d="M6.00289 5.59705C5.95557 4.67826 6.71268 4.00396 7.5526 4.00002C8.39253 3.99607 9.13781 4.67432 9.12204 5.64832C9.11021 6.36994 8.42013 7.17043 7.51711 7.15071C6.69296 7.131 5.94768 6.35811 6.00289 5.59705Z" fill="white"/>
</svg>
